<svg width="18" height="18" viewBox="0 0 18 18" fill="none" xmlns="http://www.w3.org/2000/svg">
<path d="M0.75 15C0.75 15.1989 0.829018 15.3897 0.96967 15.5303C1.11032 15.671 1.30109 15.75 1.5 15.75H7.5C7.69891 15.75 7.88968 15.671 8.03033 15.5303C8.17098 15.3897 8.25 15.1989 8.25 15C8.25 14.8011 8.17098 14.6103 8.03033 14.4697C7.88968 14.329 7.69891 14.25 7.5 14.25H2.30325C2.48524 13.0011 3.11035 11.8594 4.06444 11.0332C5.01852 10.207 6.23793 9.75157 7.5 9.75C8.38311 9.75766 9.24106 9.45611 9.92518 8.89761C10.6093 8.33911 11.0765 7.55886 11.2457 6.69209C11.4149 5.82532 11.2756 4.92665 10.8518 4.15183C10.428 3.37701 9.74651 2.77488 8.92538 2.44978C8.10425 2.12469 7.19526 2.09712 6.35594 2.37186C5.51662 2.6466 4.79988 3.20633 4.32992 3.95404C3.85996 4.70175 3.66641 5.59033 3.78281 6.46576C3.89922 7.3412 4.31823 8.14832 4.96725 8.74725C3.72241 9.25225 2.65633 10.1168 1.90515 11.2305C1.15398 12.3443 0.751812 13.6566 0.75 15ZM7.5 3.75C7.94501 3.75 8.38002 3.88196 8.75003 4.12919C9.12004 4.37643 9.40843 4.72783 9.57873 5.13896C9.74903 5.5501 9.79358 6.0025 9.70677 6.43895C9.61995 6.87541 9.40566 7.27632 9.09099 7.59099C8.77632 7.90566 8.37541 8.11995 7.93895 8.20677C7.5025 8.29358 7.0501 8.24903 6.63896 8.07873C6.22783 7.90843 5.87643 7.62005 5.62919 7.25003C5.38196 6.88002 5.25 6.44501 5.25 6C5.25 5.40326 5.48705 4.83097 5.90901 4.40901C6.33097 3.98705 6.90326 3.75 7.5 3.75ZM17.0303 11.0303L15.3105 12.75L17.0303 14.4698C17.1019 14.5389 17.159 14.6217 17.1983 14.7132C17.2376 14.8047 17.2583 14.9031 17.2592 15.0027C17.2601 15.1023 17.2411 15.201 17.2034 15.2932C17.1657 15.3854 17.11 15.4691 17.0395 15.5395C16.9691 15.61 16.8854 15.6657 16.7932 15.7034C16.701 15.7411 16.6023 15.7601 16.5027 15.7592C16.4031 15.7583 16.3047 15.7376 16.2132 15.6983C16.1217 15.659 16.0389 15.6019 15.9697 15.5303L14.25 13.8105L12.5303 15.5303C12.3888 15.6669 12.1993 15.7425 12.0027 15.7408C11.8061 15.739 11.6179 15.6602 11.4789 15.5211C11.3398 15.3821 11.261 15.1939 11.2592 14.9973C11.2575 14.8007 11.3331 14.6112 11.4698 14.4698L13.1895 12.75L11.4698 11.0303C11.3331 10.8888 11.2575 10.6993 11.2592 10.5027C11.261 10.3061 11.3398 10.1179 11.4789 9.97889C11.6179 9.83983 11.8061 9.76095 12.0027 9.75925C12.1993 9.75754 12.3888 9.83313 12.5303 9.96975L14.25 11.6895L15.9697 9.96975C16.1112 9.83313 16.3007 9.75754 16.4973 9.75925C16.6939 9.76095 16.8821 9.83983 17.0211 9.97889C17.1602 10.1179 17.239 10.3061 17.2408 10.5027C17.2425 10.6993 17.1669 10.8888 17.0303 11.0303Z" fill="#292D32"/>
</svg>
