<svg width="9" height="9" viewBox="0 0 9 9" fill="none" xmlns="http://www.w3.org/2000/svg">
<path d="M3.65625 4.5C3.65625 4.96519 4.03481 5.34375 4.5 5.34375C4.96519 5.34375 5.34375 4.96519 5.34375 4.5C5.34375 4.03481 4.96519 3.65625 4.5 3.65625C4.03481 3.65625 3.65625 4.03481 3.65625 4.5Z" fill="#999999"/>
<path d="M3.65625 7.3125C3.65625 7.77769 4.03481 8.15625 4.5 8.15625C4.96519 8.15625 5.34375 7.77769 5.34375 7.3125C5.34375 6.84731 4.96519 6.46875 4.5 6.46875C4.03481 6.46875 3.65625 6.84731 3.65625 7.3125Z" fill="#999999"/>
<path d="M3.65625 1.6875C3.65625 2.15269 4.03481 2.53125 4.5 2.53125C4.96519 2.53125 5.34375 2.15269 5.34375 1.6875C5.34375 1.22231 4.96519 0.84375 4.5 0.84375C4.03481 0.84375 3.65625 1.22231 3.65625 1.6875Z" fill="#999999"/>
</svg>
