<svg width="17" height="18" viewBox="0 0 17 18" fill="none" xmlns="http://www.w3.org/2000/svg">
<path fill-rule="evenodd" clip-rule="evenodd" d="M3.19625 7.5938L7.45783 3.33222L7.98816 3.86255L3.72658 8.12413L3.19625 7.5938Z" fill="#999999"/>
<path fill-rule="evenodd" clip-rule="evenodd" d="M4.61037 9.00786L8.87195 4.74628L9.40228 5.27661L5.1407 9.53819L4.61037 9.00786Z" fill="#999999"/>
<path fill-rule="evenodd" clip-rule="evenodd" d="M7.61562 12.0131L11.8772 7.75153L12.4075 8.28186L8.14595 12.5434L7.61562 12.0131Z" fill="#999999"/>
<path fill-rule="evenodd" clip-rule="evenodd" d="M9.02974 13.4273L13.2913 9.16571L13.8217 9.69604L9.56007 13.9576L9.02974 13.4273Z" fill="#999999"/>
<path fill-rule="evenodd" clip-rule="evenodd" d="M9.0298 13.4274C7.55879 14.8984 5.17913 14.9037 3.71466 13.4392C2.25019 11.9748 2.25549 9.59508 3.7265 8.12408L3.19617 7.59375C1.43096 9.35895 1.4246 12.2146 3.18196 13.9719C4.93932 15.7293 7.79492 15.7229 9.56013 13.9577L9.0298 13.4274Z" fill="#999999"/>
<path fill-rule="evenodd" clip-rule="evenodd" d="M11.8772 7.75153L12.4075 8.28186C13.7804 6.90892 13.7854 4.6879 12.4185 3.32107C11.0517 1.95423 8.83068 1.95918 7.45774 3.33211L7.98807 3.86244C9.06681 2.78371 10.8119 2.77982 11.8858 3.85376C12.9598 4.9277 12.9559 6.67279 11.8772 7.75153Z" fill="#999999"/>
<path fill-rule="evenodd" clip-rule="evenodd" d="M4.61053 9.00806C3.62987 9.98873 3.62633 11.5752 4.60264 12.5515C5.57895 13.5278 7.1654 13.5243 8.14607 12.5436L7.61574 12.0133C6.92927 12.6997 5.81876 12.7022 5.13534 12.0188C4.45192 11.3354 4.4544 10.2249 5.14086 9.53839L4.61053 9.00806Z" fill="#999999"/>
</svg>
